<svg xmlns="http://www.w3.org/2000/svg" xmlns:xlink="http://www.w3.org/1999/xlink" width="32" zoomAndPan="magnify" viewBox="0 0 810 809.999993" height="32" preserveAspectRatio="xMidYMid meet" version="1.0"><defs><clipPath id="b2a775b154"><path d="M 46.34375 46.34375 L 763.34375 46.34375 L 763.34375 763.34375 L 46.34375 763.34375 Z M 46.34375 46.34375 " clip-rule="nonzero"/></clipPath><clipPath id="457f9ad600"><path d="M 404.996094 46.34375 C 206.917969 46.34375 46.34375 206.917969 46.34375 404.996094 C 46.34375 603.074219 206.917969 763.648438 404.996094 763.648438 C 603.074219 763.648438 763.648438 603.074219 763.648438 404.996094 C 763.648438 206.917969 603.074219 46.34375 404.996094 46.34375 Z M 404.996094 46.34375 " clip-rule="nonzero"/></clipPath><clipPath id="444d444e6d"><path d="M 225.671875 46.652344 L 584.171875 46.652344 L 584.171875 763.652344 L 225.671875 763.652344 Z M 225.671875 46.652344 " clip-rule="nonzero"/></clipPath></defs><g clip-path="url(#b2a775b154)"><g clip-path="url(#457f9ad600)"><path stroke-linecap="butt" transform="matrix(0.75, 0, 0, 0.75, 46.344409, 46.344426)" fill="none" stroke-linejoin="miter" d="M 478.20224 -0.000900891 C 214.098077 -0.000900891 -0.000878891 214.098055 -0.000878891 478.202218 C -0.000878891 742.306381 214.098077 956.405336 478.20224 956.405336 C 742.306403 956.405336 956.405358 742.306381 956.405358 478.202218 C 956.405358 214.098055 742.306403 -0.000900891 478.20224 -0.000900891 Z M 478.20224 -0.000900891 " stroke="#b69976" stroke-width="96" stroke-opacity="1" stroke-miterlimit="4"/></g></g><g clip-path="url(#444d444e6d)"><path fill="#b69976" d="M 225.671875 584.324219 C 225.671875 683.09375 306.226562 763.652344 404.996094 763.652344 C 503.765625 763.652344 584.324219 683.09375 584.324219 584.324219 C 584.324219 582.75 584.324219 581.347656 583.972656 579.769531 C 583.972656 579.769531 583.972656 579.597656 583.796875 579.597656 C 581.695312 515.5 536.6875 465.765625 493.433594 432.316406 C 477.148438 443 462.4375 451.230469 451.230469 457.183594 C 491.683594 484.855469 539.492188 529.160156 539.492188 584.324219 C 539.492188 658.925781 479.597656 718.820312 404.996094 718.820312 C 330.394531 718.820312 270.503906 658.925781 270.503906 584.324219 C 270.503906 537.566406 303.777344 498.164062 340.203125 469.617188 C 376.800781 441.074219 413.578125 425.664062 413.578125 425.664062 C 416.03125 424.613281 418.132812 423.210938 420.058594 421.460938 C 425.835938 419.007812 458.585938 405 497.113281 374.703125 C 538.964844 341.777344 584.324219 292.042969 584.324219 226.199219 C 584.324219 127.429688 504.292969 46.519531 405.347656 46.347656 C 306.578125 46.171875 225.671875 126.378906 225.671875 225.148438 C 225.671875 226.898438 225.84375 228.472656 226.019531 229.875 C 228.296875 293.621094 272.953125 343.355469 316.035156 376.980469 C 332.496094 366.296875 347.207031 358.242188 358.589844 352.460938 C 318.3125 324.617188 270.503906 280.136719 270.503906 225.148438 C 270.503906 150.71875 330.746094 91.003906 405.347656 91.175781 C 479.949219 91.351562 539.492188 151.421875 539.492188 226.199219 C 539.492188 270.855469 506.21875 310.605469 469.441406 339.503906 C 432.667969 368.222656 395.714844 384.332031 395.714844 384.332031 C 393.4375 385.382812 391.335938 386.785156 389.585938 388.535156 C 383.632812 390.988281 351.234375 404.296875 312.882812 434.242188 C 270.851562 466.992188 225.671875 517.078125 225.671875 584.324219 Z M 225.671875 584.324219 " fill-opacity="1" fill-rule="nonzero"/></g></svg>